<?xml version="1.0" encoding="UTF-8" standalone="no"?>
<!-- Created with Inkscape (http://www.inkscape.org/) -->
<svg xmlns:rdf="http://www.w3.org/1999/02/22-rdf-syntax-ns#" xmlns="http://www.w3.org/2000/svg" height="264" width="555" version="1.1" xmlns:cc="http://creativecommons.org/ns#" xmlns:dc="http://purl.org/dc/elements/1.1/" viewBox="0 0 554.61805 263.6925">
 <metadata>
  <rdf:RDF>
   <cc:Work rdf:about="">
    <dc:format>image/svg+xml</dc:format>
    <dc:type rdf:resource="http://purl.org/dc/dcmitype/StillImage"/>
    <dc:title/>
   </cc:Work>
  </rdf:RDF>
 </metadata>
 <g transform="translate(-54.4 -655)">
  <g font-size="12.5px" font-family="FreeSans" fill="#000000">
   <text xml:space="preserve" line-height="125%" y="817.11755" x="413.26471"><tspan font-size="12.5px" line-height="125%" y="817.11755" x="413.26471" font-family="FreeSans" fill="#000000">PB0</tspan></text>
   <text xml:space="preserve" line-height="125%" y="785.4397" x="415.02316"><tspan x="415.02316" y="785.4397">PB1</tspan></text>
   <text xml:space="preserve" line-height="125%" y="753.44897" x="413.22043"><tspan x="413.22043" y="753.44897">PB2</tspan></text>
   <text xml:space="preserve" line-height="125%" y="752.58105" x="331.86288"><tspan x="331.86288" y="752.58105">PB3</tspan></text>
   <text xml:space="preserve" line-height="125%" y="784.81824" x="331.68549"><tspan x="331.68549" y="784.81824">PB4</tspan></text>
   <text xml:space="preserve" line-height="125%" y="816.1889" x="332.1044"><tspan x="332.1044" y="816.1889">GND</tspan></text>
   <text xml:space="preserve" line-height="125%" y="721.07855" x="410.9519"><tspan x="410.9519" y="721.07855">VCC</tspan></text>
   <text xml:space="preserve" line-height="125%" y="721.43115" x="331.14157"><tspan x="331.14157" y="721.43115">RESET</tspan></text>
   <text xml:space="preserve" line-height="125%" y="712.11328" x="318.99304"><tspan x="318.99304" y="712.11328">1</tspan></text>
   <text xml:space="preserve" line-height="125%" y="744.93549" x="317.14462"><tspan x="317.14462" y="744.93549">2</tspan></text>
   <text xml:space="preserve" line-height="125%" y="776.67603" x="317.26779"><tspan x="317.26779" y="776.67603">3</tspan></text>
   <text xml:space="preserve" line-height="125%" y="809.18207" x="317.35687"><tspan x="317.35687" y="809.18207">4</tspan></text>
   <text xml:space="preserve" line-height="125%" y="808.20966" x="444.08771"><tspan x="444.08771" y="808.20966">5</tspan></text>
   <text xml:space="preserve" line-height="125%" y="776.15961" x="444.29306"><tspan x="444.29306" y="776.15961">6</tspan></text>
   <text xml:space="preserve" line-height="125%" y="744.94489" x="444.47812"><tspan x="444.47812" y="744.94489">7</tspan></text>
   <text xml:space="preserve" line-height="125%" y="712.37561" x="444.11487"><tspan x="444.11487" y="712.37561">8</tspan></text>
   <text xml:space="preserve" line-height="125%" y="680.01825" x="459.49222"><tspan x="459.49222" y="680.01825">+5 V</tspan></text>
   <text xml:space="preserve" line-height="125%" y="756.44672" x="131.27574"><tspan x="131.27574" y="756.44672">reset</tspan></text>
   <text xml:space="preserve" line-height="125%" y="785.80634" x="187.76143"><tspan x="187.76143" y="785.80634">LED</tspan></text>
   <text xml:space="preserve" line-height="125%" y="826.75311" x="71.675285"><tspan x="71.675285" y="826.75311">telegraph key</tspan></text>
   <text xml:space="preserve" line-height="125%" y="849.75452" x="500.28781"><tspan x="500.28781" y="849.75452">DIP switches</tspan></text>
   <text xml:space="preserve" line-height="125%" y="751.99042" x="513.17114"><tspan x="513.17114" y="751.99042">serial monitor</tspan></text>
  </g>
  <g stroke="#000000" stroke-width="2" fill="none">
   <rect rx=".00000233" height="128" width="112" y="700" x="328"/>
   <path d="m396 700a12 12 0 0 1 -5.97 10.4 12 12 0 0 1 -12 0.0292 12 12 0 0 1 -6 -10"/>
   <path d="m440 716h32v-32"/>
   <path d="m456 684h32"/>
   <path d="m328 812h-16v32"/>
   <path d="m304 844h16l-8 16z"/>
   <path d="m440 812h32v24l8 16"/>
   <path d="m472 884h16l-8 16z"/>
   <path d="m440 780h48v56l8 16"/>
   <path d="m472 852v16h16v-16"/>
   <path d="m480 868v16"/>
   <rect rx=".00000233" height="32" width="88" y="732" x="504"/>
   <path d="m440 748h64"/>
   <rect rx=".00000233" height="16" width="56" y="740" x="248"/>
   <path d="m328 748h-24"/>
   <path d="m248 748h-24v24"/>
   <path d="m216 772h16l-8 16z"/>
   <path d="m216 788h16"/>
   <path d="m224 788v24"/>
   <path d="m216 812h16l-8 16z"/>
   <path d="m328 716h-152v28"/>
   <path d="m168 740v24"/>
   <path d="m176 760v52"/>
   <path d="m168 812h16l-8 16z"/>
   <path d="m168 748h-4v8h4"/>
   <path d="m328 780h-56v72h-144l-24-12 2-4"/>
   <path d="m103 852h-23v16"/>
   <path d="m103 835 6 3"/>
  </g>
  <circle cx="128" cy="852" r="2" fill="#000000"/>
  <circle cx="103" cy="852" r="2" fill="#000000"/>
  <path d="m72 868h16l-8 16z" stroke="#000000" stroke-width="2" fill="none"/>
  <g fill="#000000">
   <circle cx="176" cy="744" r="2"/>
   <circle cx="176" cy="760" r="2"/>
   <circle cx="472" cy="836" r="2"/>
   <circle cx="488" cy="836" r="2"/>
   <circle cx="488" cy="852" r="2"/>
   <circle cx="472" cy="852" r="2"/>
  </g>
  <g stroke="#000000" stroke-width="2" fill="none">
   <path d="m236 774 8-8"/>
   <path d="m240 766h4v4"/>
   <path d="m236 786 8-8"/>
   <path d="m240 778h4v4"/>
  </g>
  <text xml:space="preserve" font-size="12.5px" line-height="125%" y="843.22052" x="358.05585" font-family="FreeSans" fill="#000000"><tspan x="358.05585" y="843.22052">ATtiny13A</tspan></text>
 </g>
</svg>
